# xmcd
#
# Track frame offsets:
#	150
#	13846
#	33074
#
# Disc length: 836 seconds
#
# Revision: 0
# Processed by: cddbd v1.5.1PL2 Copyright (c) Steve Scherf et al.
# Submitted via: audiograbber 1.83.01
#
DISCID=17034203
DTITLE=The Flood - Hello Blue Sky
DYEAR=1900
DGENRE=Country/Rock
TTITLE0=Hello Blue Sky
TTITLE1=Colder Than Ever
TTITLE2=Brickyard Blues
EXTD=
EXTT0=
EXTT1=
EXTT2=
PLAYORDER=
